#N canvas 1458 30 453 864 36;
#X text 26 2 clipping module;
#X obj 54 451 inlet~;
#X obj 53 653 *~;
#X obj 52 765 clip~ -0.25 0.25;
#X floatatom 226 660 5 0 0 0 - - -;
#X obj 226 704 * -1;
#X obj 226 610 inlet;
#X obj 54 961 outlet~;
#X obj 53 910 *~;
#X obj 279 813 inlet;
#X text 21 285 outlet structure: 1:clipped audio signal \, multiplied
in output range specified;
#X text 24 45 inlet structure: 1: input audio signal 2: input multiplier
(diff for each filter type) 3: |clip range from 0-1| 4: output multiplier
range \, designed for 0-1 range;
#X obj 116 550 inlet;
#X text 101 507 range suggestion: 0-50;
#X floatatom 116 595 5 0 0 0 - - -;
#X floatatom 279 858 5 0 0 0 - - -;
#X connect 1 0 2 0;
#X connect 2 0 3 0;
#X connect 3 0 8 0;
#X connect 4 0 5 0;
#X connect 4 0 3 2;
#X connect 5 0 3 1;
#X connect 6 0 4 0;
#X connect 8 0 7 0;
#X connect 9 0 15 0;
#X connect 12 0 14 0;
#X connect 14 0 2 1;
#X connect 15 0 8 1;
