#N canvas -9 -9 1920 1026 36;
#X obj 1090 132 s deltime;
#X obj 1039 319 hradio 45 1 0 10 empty empty empty 0 -8 0 10 -203904
-1 -1 9;
#X obj 1039 198 r deltime;
#X obj 1039 245 bng 15 250 50 0 empty empty empty 17 7 0 10 -262144
-1 -1;
#X obj 595 495 delread~ sound;
#X floatatom 595 327 5 0 0 0 - - -;
#X floatatom 664 327 5 0 0 0 - - -;
#X floatatom 731 327 5 0 0 0 - - -;
#X floatatom 800 327 5 0 0 0 - - -;
#X floatatom 866 327 5 0 0 0 - - -;
#X floatatom 596 375 5 0 0 0 - - -;
#X floatatom 665 375 5 0 0 0 - - -;
#X floatatom 732 375 5 0 0 0 - - -;
#X floatatom 801 375 5 0 0 0 - - -;
#X floatatom 867 375 5 0 0 0 - - -;
#N canvas -9 -9 1920 1026 delayoutsfinal 0;
#X obj 268 224 r deltime;
#X floatatom 341 544 5 0 0 0 - - -;
#X floatatom 419 544 5 0 0 0 - - -;
#X floatatom 505 544 5 0 0 0 - - -;
#X floatatom 584 544 5 0 0 0 - - -;
#X floatatom 670 544 5 0 0 0 - - -;
#X floatatom 757 544 5 0 0 0 - - -;
#X floatatom 843 544 5 0 0 0 - - -;
#X floatatom 928 544 5 0 0 0 - - -;
#X floatatom 1014 544 5 0 0 0 - - -;
#X obj 419 499 * 3;
#X obj 505 499 * 4;
#X obj 584 499 * 5;
#X obj 670 499 * 6;
#X obj 757 499 * 7;
#X obj 843 499 * 8;
#X obj 928 499 * 9;
#X obj 1014 499 * 10;
#X obj 437 294 sel 0 1 2 3 4 5 6 7 8 9;
#X floatatom 255 544 5 0 0 0 - - -;
#X obj 255 499 f;
#X floatatom 268 269 5 0 0 0 - - -;
#X obj 335 380 f;
#X obj 420 447 f;
#X obj 507 447 f;
#X obj 590 446 f;
#X obj 675 445 f;
#X obj 759 449 f;
#X obj 848 444 f;
#X obj 928 443 f;
#X obj 1017 442 f;
#X floatatom 340 448 5 0 0 0 - - -;
#X obj 341 499 * 2;
#X obj 268 313 bng 15 250 50 0 empty empty empty 17 7 0 10 -262144
-1 -1;
#X obj 182 76 inlet;
#X obj 254 670 outlet;
#X obj 397 671 outlet;
#X obj 537 672 outlet;
#X obj 680 673 outlet;
#X obj 819 675 outlet;
#X obj 962 676 outlet;
#X obj 1102 680 outlet;
#X obj 1245 681 outlet;
#X obj 1384 681 outlet;
#X obj 1527 682 outlet;
#X obj 612 62 bng 15 250 50 0 empty empty empty 17 7 0 10 -262144 -1
-1;
#X msg 116 223 0;
#X obj 193 143 bng 15 250 50 0 empty empty empty 17 7 0 10 -262144
-1 -1;
#X obj 620 124 t f b b;
#X floatatom 116 268 5 0 0 0 - - -;
#X connect 0 0 21 0;
#X connect 1 0 36 0;
#X connect 2 0 37 0;
#X connect 3 0 38 0;
#X connect 4 0 39 0;
#X connect 5 0 40 0;
#X connect 6 0 41 0;
#X connect 7 0 42 0;
#X connect 8 0 43 0;
#X connect 9 0 44 0;
#X connect 10 0 2 0;
#X connect 11 0 3 0;
#X connect 12 0 4 0;
#X connect 13 0 5 0;
#X connect 14 0 6 0;
#X connect 15 0 7 0;
#X connect 16 0 8 0;
#X connect 17 0 9 0;
#X connect 18 0 20 0;
#X connect 18 1 22 0;
#X connect 18 1 20 0;
#X connect 18 2 23 0;
#X connect 18 2 20 0;
#X connect 18 2 22 0;
#X connect 18 3 24 0;
#X connect 18 3 20 0;
#X connect 18 3 22 0;
#X connect 18 3 23 0;
#X connect 18 4 25 0;
#X connect 18 4 20 0;
#X connect 18 4 22 0;
#X connect 18 4 23 0;
#X connect 18 4 24 0;
#X connect 18 5 20 0;
#X connect 18 5 26 0;
#X connect 18 5 25 0;
#X connect 18 5 24 0;
#X connect 18 5 23 0;
#X connect 18 5 22 0;
#X connect 18 6 20 0;
#X connect 18 6 27 0;
#X connect 18 6 26 0;
#X connect 18 6 25 0;
#X connect 18 6 24 0;
#X connect 18 6 23 0;
#X connect 18 6 22 0;
#X connect 18 7 20 0;
#X connect 18 7 28 0;
#X connect 18 7 27 0;
#X connect 18 7 26 0;
#X connect 18 7 25 0;
#X connect 18 7 24 0;
#X connect 18 7 23 0;
#X connect 18 7 22 0;
#X connect 18 8 20 0;
#X connect 18 8 29 0;
#X connect 18 8 28 0;
#X connect 18 8 27 0;
#X connect 18 8 26 0;
#X connect 18 8 25 0;
#X connect 18 8 24 0;
#X connect 18 8 23 0;
#X connect 18 8 22 0;
#X connect 18 9 20 0;
#X connect 18 9 30 0;
#X connect 18 9 29 0;
#X connect 18 9 28 0;
#X connect 18 9 27 0;
#X connect 18 9 26 0;
#X connect 18 9 25 0;
#X connect 18 9 24 0;
#X connect 18 9 23 0;
#X connect 18 9 22 0;
#X connect 18 10 20 0;
#X connect 19 0 35 0;
#X connect 20 0 19 0;
#X connect 21 0 20 1;
#X connect 21 0 22 1;
#X connect 21 0 23 1;
#X connect 21 0 30 1;
#X connect 21 0 29 1;
#X connect 21 0 28 1;
#X connect 21 0 27 1;
#X connect 21 0 26 1;
#X connect 21 0 25 1;
#X connect 21 0 24 1;
#X connect 21 0 33 0;
#X connect 22 0 31 0;
#X connect 23 0 10 0;
#X connect 24 0 11 0;
#X connect 25 0 12 0;
#X connect 26 0 13 0;
#X connect 27 0 14 0;
#X connect 28 0 15 0;
#X connect 29 0 16 0;
#X connect 30 0 17 0;
#X connect 31 0 32 0;
#X connect 32 0 1 0;
#X connect 34 0 47 0;
#X connect 34 0 48 0;
#X connect 45 0 48 0;
#X connect 46 0 49 0;
#X connect 48 0 18 0;
#X connect 48 1 21 0;
#X connect 48 2 46 0;
#X connect 49 0 19 0;
#X connect 49 0 9 0;
#X connect 49 0 8 0;
#X connect 49 0 7 0;
#X connect 49 0 6 0;
#X connect 49 0 5 0;
#X connect 49 0 4 0;
#X connect 49 0 3 0;
#X connect 49 0 2 0;
#X connect 49 0 1 0;
#X restore 595 276 pd delayoutsfinal;
#X obj 243 319 vsl 50 200 0 1 0 0 empty empty empty 0 -9 0 10 -203904
-1 -1 18100 1;
#X obj 243 534 bng 15 250 50 0 empty empty empty 17 7 0 10 -262144
-1 -1;
#X obj 139 71 tgl 150 0 empty empty empty 17 7 0 10 -203904 -1 -1 1
1;
#N canvas -9 -9 1920 1026 multiplier 0;
#X obj 105 27 inlet;
#X obj 307 64 inlet;
#X obj 421 64 inlet;
#X obj 535 64 inlet;
#X obj 649 64 inlet;
#X obj 763 64 inlet;
#X obj 877 64 inlet;
#X obj 991 64 inlet;
#X obj 1105 64 inlet;
#X obj 1219 64 inlet;
#X obj 1333 64 inlet;
#X obj 319 699 outlet;
#X obj 433 699 outlet;
#X obj 547 699 outlet;
#X obj 661 699 outlet;
#X obj 775 699 outlet;
#X obj 889 699 outlet;
#X obj 1003 699 outlet;
#X obj 1117 699 outlet;
#X obj 1231 699 outlet;
#X obj 1345 699 outlet;
#X floatatom 105 72 5 0 0 0 - - -;
#X obj 450 214 > 0;
#X floatatom 450 259 5 0 0 0 - - -;
#X obj 450 303 *;
#X floatatom 450 348 5 0 0 0 - - -;
#X obj 199 141 vsl 15 128 0 1 0 0 empty empty empty 0 -9 0 10 -262144
-1 -1 12000 1;
#X obj 562 215 > 0;
#X floatatom 562 260 5 0 0 0 - - -;
#X obj 562 304 *;
#X floatatom 562 349 5 0 0 0 - - -;
#X obj 674 215 > 0;
#X floatatom 674 260 5 0 0 0 - - -;
#X obj 674 304 *;
#X floatatom 674 349 5 0 0 0 - - -;
#X obj 786 215 > 0;
#X floatatom 786 260 5 0 0 0 - - -;
#X obj 786 304 *;
#X floatatom 786 349 5 0 0 0 - - -;
#X obj 898 215 > 0;
#X floatatom 898 260 5 0 0 0 - - -;
#X obj 898 304 *;
#X floatatom 898 349 5 0 0 0 - - -;
#X obj 1010 215 > 0;
#X floatatom 1010 260 5 0 0 0 - - -;
#X obj 1010 304 *;
#X floatatom 1010 349 5 0 0 0 - - -;
#X obj 1122 216 > 0;
#X floatatom 1122 261 5 0 0 0 - - -;
#X obj 1122 305 *;
#X floatatom 1122 350 5 0 0 0 - - -;
#X obj 1234 216 > 0;
#X floatatom 1234 261 5 0 0 0 - - -;
#X obj 1234 305 *;
#X floatatom 1234 350 5 0 0 0 - - -;
#X obj 1346 216 > 0;
#X floatatom 1346 261 5 0 0 0 - - -;
#X obj 1346 305 *;
#X floatatom 1346 350 5 0 0 0 - - -;
#X obj 1458 216 > 0;
#X floatatom 1458 261 5 0 0 0 - - -;
#X obj 1458 305 *;
#X floatatom 1458 350 5 0 0 0 - - -;
#X obj 323 175 bng 15 250 50 0 empty empty empty 17 7 0 10 -262144
-1 -1;
#X obj 537 533 / 2;
#X obj 420 542 / 1;
#X obj 656 538 / 3;
#X obj 753 534 / 5;
#X obj 864 531 / 8;
#X obj 989 536 / 13;
#X obj 1109 541 / 21;
#X obj 1218 535 / 34;
#X obj 1315 544 / 55;
#X obj 1442 535 / 89;
#X connect 0 0 21 0;
#X connect 1 0 22 0;
#X connect 2 0 27 0;
#X connect 3 0 31 0;
#X connect 4 0 35 0;
#X connect 5 0 39 0;
#X connect 6 0 43 0;
#X connect 7 0 47 0;
#X connect 8 0 51 0;
#X connect 9 0 55 0;
#X connect 10 0 59 0;
#X connect 21 0 26 0;
#X connect 22 0 23 0;
#X connect 23 0 24 0;
#X connect 24 0 25 0;
#X connect 25 0 11 0;
#X connect 26 0 63 0;
#X connect 26 0 64 0;
#X connect 26 0 65 0;
#X connect 26 0 66 0;
#X connect 26 0 67 0;
#X connect 26 0 68 0;
#X connect 26 0 69 0;
#X connect 26 0 70 0;
#X connect 26 0 71 0;
#X connect 26 0 72 0;
#X connect 26 0 73 0;
#X connect 27 0 28 0;
#X connect 28 0 29 0;
#X connect 29 0 30 0;
#X connect 30 0 12 0;
#X connect 31 0 32 0;
#X connect 32 0 33 0;
#X connect 33 0 34 0;
#X connect 34 0 13 0;
#X connect 35 0 36 0;
#X connect 36 0 37 0;
#X connect 37 0 38 0;
#X connect 38 0 14 0;
#X connect 39 0 40 0;
#X connect 40 0 41 0;
#X connect 41 0 42 0;
#X connect 42 0 15 0;
#X connect 43 0 44 0;
#X connect 44 0 45 0;
#X connect 45 0 46 0;
#X connect 46 0 16 0;
#X connect 47 0 48 0;
#X connect 48 0 49 0;
#X connect 49 0 50 0;
#X connect 50 0 17 0;
#X connect 51 0 52 0;
#X connect 52 0 53 0;
#X connect 53 0 54 0;
#X connect 54 0 18 0;
#X connect 55 0 56 0;
#X connect 56 0 57 0;
#X connect 57 0 58 0;
#X connect 58 0 19 0;
#X connect 59 0 60 0;
#X connect 60 0 61 0;
#X connect 61 0 62 0;
#X connect 62 0 20 0;
#X connect 63 0 24 0;
#X connect 63 0 29 0;
#X connect 63 0 61 0;
#X connect 63 0 57 0;
#X connect 63 0 53 0;
#X connect 63 0 49 0;
#X connect 63 0 45 0;
#X connect 63 0 41 0;
#X connect 63 0 37 0;
#X connect 63 0 33 0;
#X connect 64 0 29 1;
#X connect 65 0 24 1;
#X connect 66 0 33 1;
#X connect 67 0 37 1;
#X connect 68 0 41 1;
#X connect 69 0 45 1;
#X connect 70 0 49 1;
#X connect 71 0 53 1;
#X connect 72 0 57 1;
#X connect 73 0 61 1;
#X restore 595 436 pd multiplier;
#X obj 454 284 vsl 45 128 0 1 0 0 empty empty empty 0 -9 0 10 -203904
-1 -1 12000 1;
#X floatatom 77 533 5 0 0 0 - - -;
#X obj 77 577 s volume;
#N canvas 424 409 450 459 outputs 0;
#X obj 173 64 inlet;
#X obj 70 180 *~;
#X obj 70 239 *~;
#X text 37 8 signal \, multipler \, volume;
#X obj 32 64 inlet~;
#X obj 165 134 r volume;
#X floatatom 165 179 5 0 0 0 - - -;
#X obj 70 299 outlet~;
#X connect 0 0 1 1;
#X connect 1 0 2 0;
#X connect 2 0 7 0;
#X connect 4 0 1 0;
#X connect 5 0 6 0;
#X connect 6 0 2 1;
#X restore 595 546 pd outputs;
#X obj 595 595 delread~ sound;
#N canvas 424 409 450 459 outputs 0;
#X obj 173 64 inlet;
#X obj 70 180 *~;
#X obj 70 239 *~;
#X text 37 8 signal \, multipler \, volume;
#X obj 32 64 inlet~;
#X obj 165 134 r volume;
#X floatatom 165 179 5 0 0 0 - - -;
#X obj 70 299 outlet~;
#X connect 0 0 1 1;
#X connect 1 0 2 0;
#X connect 2 0 7 0;
#X connect 4 0 1 0;
#X connect 5 0 6 0;
#X connect 6 0 2 1;
#X restore 595 646 pd outputs;
#X obj 595 695 delread~ sound;
#N canvas 424 409 450 459 outputs 0;
#X obj 173 64 inlet;
#X obj 70 180 *~;
#X obj 70 239 *~;
#X text 37 8 signal \, multipler \, volume;
#X obj 32 64 inlet~;
#X obj 165 134 r volume;
#X floatatom 165 179 5 0 0 0 - - -;
#X obj 70 299 outlet~;
#X connect 0 0 1 1;
#X connect 1 0 2 0;
#X connect 2 0 7 0;
#X connect 4 0 1 0;
#X connect 5 0 6 0;
#X connect 6 0 2 1;
#X restore 595 746 pd outputs;
#X obj 595 795 delread~ sound;
#N canvas 424 409 450 459 outputs 0;
#X obj 173 64 inlet;
#X obj 70 180 *~;
#X obj 70 239 *~;
#X text 37 8 signal \, multipler \, volume;
#X obj 32 64 inlet~;
#X obj 165 134 r volume;
#X floatatom 165 179 5 0 0 0 - - -;
#X obj 70 299 outlet~;
#X connect 0 0 1 1;
#X connect 1 0 2 0;
#X connect 2 0 7 0;
#X connect 4 0 1 0;
#X connect 5 0 6 0;
#X connect 6 0 2 1;
#X restore 595 846 pd outputs;
#X obj 595 895 delread~ sound;
#N canvas 424 409 450 459 outputs 0;
#X obj 173 64 inlet;
#X obj 70 180 *~;
#X obj 70 239 *~;
#X text 37 8 signal \, multipler \, volume;
#X obj 32 64 inlet~;
#X obj 165 134 r volume;
#X floatatom 165 179 5 0 0 0 - - -;
#X obj 70 299 outlet~;
#X connect 0 0 1 1;
#X connect 1 0 2 0;
#X connect 2 0 7 0;
#X connect 4 0 1 0;
#X connect 5 0 6 0;
#X connect 6 0 2 1;
#X restore 595 946 pd outputs;
#X obj 1089 34 cnv 15 120 60 empty empty empty 20 12 0 14 -203904 -66577
0;
#X floatatom 1094 45 5 0 0 0 - - -;
#X obj 77 440 *;
#X obj 77 395 *;
#X msg 77 273 1;
#X floatatom 77 318 5 0 0 0 - - -;
#X obj 925 495 delread~ sound;
#N canvas 424 409 450 459 outputs 0;
#X obj 173 64 inlet;
#X obj 70 180 *~;
#X obj 70 239 *~;
#X text 37 8 signal \, multipler \, volume;
#X obj 32 64 inlet~;
#X obj 165 134 r volume;
#X floatatom 165 179 5 0 0 0 - - -;
#X obj 70 299 outlet~;
#X connect 0 0 1 1;
#X connect 1 0 2 0;
#X connect 2 0 7 0;
#X connect 4 0 1 0;
#X connect 5 0 6 0;
#X connect 6 0 2 1;
#X restore 925 546 pd outputs;
#X obj 925 595 delread~ sound;
#N canvas 424 409 450 459 outputs 0;
#X obj 173 64 inlet;
#X obj 70 180 *~;
#X obj 70 239 *~;
#X text 37 8 signal \, multipler \, volume;
#X obj 32 64 inlet~;
#X obj 165 134 r volume;
#X floatatom 165 179 5 0 0 0 - - -;
#X obj 70 299 outlet~;
#X connect 0 0 1 1;
#X connect 1 0 2 0;
#X connect 2 0 7 0;
#X connect 4 0 1 0;
#X connect 5 0 6 0;
#X connect 6 0 2 1;
#X restore 925 646 pd outputs;
#X obj 925 695 delread~ sound;
#N canvas 424 409 450 459 outputs 0;
#X obj 173 64 inlet;
#X obj 70 180 *~;
#X obj 70 239 *~;
#X text 37 8 signal \, multipler \, volume;
#X obj 32 64 inlet~;
#X obj 165 134 r volume;
#X floatatom 165 179 5 0 0 0 - - -;
#X obj 70 299 outlet~;
#X connect 0 0 1 1;
#X connect 1 0 2 0;
#X connect 2 0 7 0;
#X connect 4 0 1 0;
#X connect 5 0 6 0;
#X connect 6 0 2 1;
#X restore 925 746 pd outputs;
#X obj 925 795 delread~ sound;
#N canvas 424 409 450 459 outputs 0;
#X obj 173 64 inlet;
#X obj 70 180 *~;
#X obj 70 239 *~;
#X text 37 8 signal \, multipler \, volume;
#X obj 32 64 inlet~;
#X obj 165 134 r volume;
#X floatatom 165 179 5 0 0 0 - - -;
#X obj 70 299 outlet~;
#X connect 0 0 1 1;
#X connect 1 0 2 0;
#X connect 2 0 7 0;
#X connect 4 0 1 0;
#X connect 5 0 6 0;
#X connect 6 0 2 1;
#X restore 925 846 pd outputs;
#X obj 925 895 delread~ sound;
#N canvas 605 342 450 459 outputs 0;
#X obj 173 64 inlet;
#X obj 70 180 *~;
#X obj 70 239 *~;
#X text 37 8 signal \, multipler \, volume;
#X obj 32 64 inlet~;
#X obj 165 134 r volume;
#X floatatom 165 179 5 0 0 0 - - -;
#X obj 70 299 outlet~;
#X connect 0 0 1 1;
#X connect 1 0 2 0;
#X connect 2 0 7 0;
#X connect 4 0 1 0;
#X connect 5 0 6 0;
#X connect 6 0 2 1;
#X restore 925 946 pd outputs;
#X obj 444 91 delwrite~ sound 10000;
#X obj 564 164 s~ origsig;
#X obj 1255 495 r~ origsig;
#X obj 1347 545 r volume;
#X obj 1255 639 *~;
#X obj 1256 805 dac~;
#X obj 1256 544 *~;
#X obj 1573 482 tgl 45 0 empty empty empty 17 7 0 10 -203904 -1 -1
1 1;
#X text 1054 276 how many repeats;
#X text 1049 366 1 2 3 4 5 6 7 8 9 10;
#X text 139 26 sound on/off;
#X text 234 236 master volume, f 6;
#X text 429 197 multiplier multiplier, f 10;
#X text 1210 43 delay time in milliseconds;
#X text 1495 436 original sound on/off;
#X obj 563 20 adc~ 1;
#X msg 1289 169 100;
#X msg 1455 170 200;
#X msg 1548 174 300;
#X msg 1645 174 400;
#X msg 1735 172 500;
#X msg 1370 167 150;
#X obj 1264 715 lop~;
#X floatatom 1381 645 5 0 0 0 - - -;
#N canvas -9 -9 1920 1026 lfo 0;
#X floatatom 205 371 5 0 0 0 - - -;
#X obj 205 326 snapshot~;
#X obj 205 281 osc~ 0.1;
#X obj 213 721 +, f 7;
#X floatatom 214 801 5 0 0 0 - - -;
#X obj 622 60 inlet;
#X obj 267 26 inlet;
#X text 379 0 bang \, current delay time;
#X obj 212 956 outlet;
#X obj 453 543 line;
#X floatatom 453 588 10 0 0 0 - - -;
#X obj 68 84 tgl 15 0 empty empty empty 17 7 0 10 -262144 -1 -1 0 1
;
#X obj 145 414 bng 15 250 50 0 empty empty empty 17 7 0 10 -262144
-1 -1;
#X obj 427 136 loadbang;
#X obj 266 433 f;
#X obj 51 493 bng 15 250 50 0 empty empty empty 17 7 0 10 -262144 -1
-1;
#X floatatom 266 478 5 0 0 0 - - -;
#X floatatom 538 334 5 0 0 0 - - -;
#X obj 421 435 pack f f f;
#X floatatom 638 271 5 0 0 0 - - -;
#X msg 421 480 \$1 \, \$2 \$3;
#X msg 538 289 1;
#X obj 51 448 delay 250;
#X msg 638 226 250;
#X floatatom 547 770 5 0 0 0 - - -;
#X obj 185 648 * 100;
#X obj 68 197 metro 1 250 msec;
#X connect 0 0 12 0;
#X connect 0 0 14 1;
#X connect 0 0 18 0;
#X connect 1 0 0 0;
#X connect 2 0 1 0;
#X connect 3 0 4 0;
#X connect 4 0 8 0;
#X connect 5 0 3 1;
#X connect 6 0 11 0;
#X connect 9 0 10 0;
#X connect 10 0 25 0;
#X connect 11 0 26 0;
#X connect 12 0 22 0;
#X connect 13 0 21 0;
#X connect 13 0 23 0;
#X connect 14 0 16 0;
#X connect 15 0 14 0;
#X connect 15 0 18 0;
#X connect 16 0 18 1;
#X connect 17 0 9 2;
#X connect 18 0 20 0;
#X connect 19 0 18 2;
#X connect 20 0 9 0;
#X connect 21 0 17 0;
#X connect 22 0 15 0;
#X connect 23 0 19 0;
#X connect 25 0 3 0;
#X connect 25 0 24 0;
#X connect 26 0 1 0;
#X restore 919 24 pd lfo;
#X obj 863 -18 tgl 15 0 empty empty empty 17 7 0 10 -262144 -1 -1 0
1;
#X floatatom 919 69 5 0 0 0 - - -;
#X obj 1549 733 snapshot~;
#X obj 1702 638 metro 10;
#X obj 1549 688 osc~ 0.01;
#X floatatom 1549 778 5 0 0 0 - - -;
#X floatatom 1549 920 5 0 0 0 - - -;
#X obj 1549 822 + 1;
#X obj 1546 870 * 500;
#X obj 1750 557 tgl 15 0 empty empty empty 17 7 0 10 -262144 -1 -1
0 1;
#X connect 1 0 15 0;
#X connect 2 0 3 0;
#X connect 3 0 1 0;
#X connect 4 0 23 0;
#X connect 5 0 4 0;
#X connect 5 0 19 1;
#X connect 6 0 19 2;
#X connect 6 0 24 0;
#X connect 7 0 19 3;
#X connect 7 0 26 0;
#X connect 8 0 19 4;
#X connect 8 0 28 0;
#X connect 9 0 19 5;
#X connect 9 0 30 0;
#X connect 10 0 19 6;
#X connect 10 0 38 0;
#X connect 11 0 19 7;
#X connect 11 0 40 0;
#X connect 12 0 19 8;
#X connect 12 0 42 0;
#X connect 13 0 19 9;
#X connect 13 0 44 0;
#X connect 14 0 19 10;
#X connect 14 0 46 0;
#X connect 15 0 5 0;
#X connect 15 1 6 0;
#X connect 15 2 7 0;
#X connect 15 3 8 0;
#X connect 15 4 9 0;
#X connect 15 5 10 0;
#X connect 15 6 11 0;
#X connect 15 7 12 0;
#X connect 15 8 13 0;
#X connect 15 9 14 0;
#X connect 16 0 17 0;
#X connect 16 0 35 1;
#X connect 17 0 35 0;
#X connect 18 0 34 1;
#X connect 18 0 36 0;
#X connect 19 0 23 1;
#X connect 19 1 25 1;
#X connect 19 2 27 1;
#X connect 19 3 29 1;
#X connect 19 4 31 1;
#X connect 19 5 39 1;
#X connect 19 6 41 1;
#X connect 19 7 43 1;
#X connect 19 8 45 1;
#X connect 19 9 47 1;
#X connect 20 0 19 0;
#X connect 21 0 22 0;
#X connect 23 0 52 0;
#X connect 24 0 25 0;
#X connect 25 0 52 0;
#X connect 26 0 27 0;
#X connect 27 0 52 0;
#X connect 28 0 29 0;
#X connect 29 0 52 0;
#X connect 30 0 31 0;
#X connect 31 0 52 0;
#X connect 33 0 0 0;
#X connect 34 0 21 0;
#X connect 35 0 34 0;
#X connect 36 0 37 0;
#X connect 37 0 35 0;
#X connect 38 0 39 0;
#X connect 39 0 52 0;
#X connect 40 0 41 0;
#X connect 41 0 52 0;
#X connect 42 0 43 0;
#X connect 43 0 52 0;
#X connect 44 0 45 0;
#X connect 45 0 52 0;
#X connect 46 0 47 0;
#X connect 47 0 52 0;
#X connect 50 0 54 0;
#X connect 51 0 52 1;
#X connect 51 0 54 1;
#X connect 52 0 70 0;
#X connect 54 0 52 0;
#X connect 55 0 54 1;
#X connect 63 0 48 0;
#X connect 63 0 54 0;
#X connect 63 0 49 0;
#X connect 64 0 33 0;
#X connect 65 0 33 0;
#X connect 66 0 33 0;
#X connect 67 0 33 0;
#X connect 68 0 33 0;
#X connect 69 0 33 0;
#X connect 70 0 53 0;
#X connect 70 0 53 1;
#X connect 71 0 70 1;
#X connect 72 0 74 0;
#X connect 75 0 78 0;
#X connect 76 0 75 0;
#X connect 77 0 75 0;
#X connect 78 0 80 0;
#X connect 80 0 81 0;
#X connect 81 0 79 0;
#X connect 82 0 76 0;
