#N canvas -9 -9 1920 1026 36;
#X obj 363 168 osc~ 1;
#X floatatom 363 120 5 0 0 0 - - -;
#X obj 1444 624 tabwrite~ array1;
#X obj 1444 550 metro 1 10 persec;
#X obj 1444 482 bng 15 250 50 0 empty empty empty 17 7 0 10 -262144
-1 -1;
#X obj 1464 498 loadbang;
#X obj 44 292 *~;
#X obj 1491 680 tabwrite~ array2;
#X obj 1444 408 inlet;
#X obj 363 58 inlet;
#X text 338 16 pitch in Hz;
#X text 1442 360 restart the metronome;
#X text 46 20 input signal;
#X obj 45 89 inlet~;
#X obj 596 59 inlet;
#X text 601 10 modulation amplitude;
#X obj 44 481 *~;
#X obj 44 526 outlet~;
#X obj 1059 65 inlet;
#X text 1053 20 master volume;
#X obj 362 219 *~;
#X connect 0 0 20 0;
#X connect 1 0 0 0;
#X connect 3 0 2 0;
#X connect 3 0 7 0;
#X connect 4 0 3 0;
#X connect 5 0 3 0;
#X connect 6 0 7 0;
#X connect 6 0 16 0;
#X connect 8 0 4 0;
#X connect 9 0 1 0;
#X connect 13 0 6 0;
#X connect 14 0 20 1;
#X connect 16 0 17 0;
#X connect 18 0 16 1;
#X connect 20 0 2 0;
#X connect 20 0 6 1;
